<?xml version="1.0" encoding="UTF-8"?>
<svg xmlns="http://www.w3.org/2000/svg" viewBox="0 0 960 540" width="960" height="540" font-family="-apple-system, 'Noto Sans KR', sans-serif">
  <defs>
    <linearGradient id="areaGrad" x1="0" y1="0" x2="0" y2="1">
      <stop offset="0%" stop-color="#027CFA" stop-opacity="0.35"/>
      <stop offset="100%" stop-color="#027CFA" stop-opacity="0"/>
    </linearGradient>
  </defs>

  <!-- 배경 -->
  <rect width="960" height="540" fill="#f8fafc"/>

  <!-- 사이드바 -->
  <rect x="0" y="0" width="200" height="540" fill="#0f172a"/>
  <rect x="20" y="20" width="32" height="32" rx="8" fill="#027CFA"/>
  <text x="36" y="40" font-weight="800" font-size="14" fill="#fff" text-anchor="middle">M</text>
  <text x="60" y="35" font-weight="700" font-size="14" fill="#fff">맑은 메시징</text>
  <text x="60" y="48" font-size="9" fill="#64748b">v2.4.1 · Pro</text>

  <line x1="20" y1="68" x2="180" y2="68" stroke="#1e293b"/>

  <!-- 활성 메뉴 -->
  <rect x="12" y="78" width="176" height="34" rx="8" fill="#1e293b"/>
  <circle cx="32" cy="95" r="3" fill="#027CFA"/>
  <text x="50" y="100" font-weight="600" font-size="12" fill="#fff">대시보드</text>

  <text x="32" y="140" font-size="12" fill="#94a3b8">메시지 발송</text>
  <text x="32" y="172" font-size="12" fill="#94a3b8">발송 조회 / 통계</text>
  <text x="32" y="204" font-size="12" fill="#94a3b8">주소록</text>
  <text x="32" y="236" font-size="12" fill="#94a3b8">발신 정보</text>
  <text x="32" y="268" font-size="12" fill="#94a3b8">메시지 관리</text>
  <text x="32" y="300" font-size="12" fill="#94a3b8">설정</text>

  <!-- 하단 유저 박스 -->
  <rect x="14" y="486" width="172" height="40" rx="8" fill="#1e293b"/>
  <circle cx="34" cy="506" r="11" fill="#475569"/>
  <text x="34" y="511" font-weight="700" font-size="10" fill="#fff" text-anchor="middle">관</text>
  <text x="54" y="503" font-weight="600" font-size="11" fill="#fff">관리자</text>
  <text x="54" y="517" font-size="9" fill="#94a3b8">admin@malgn.so</text>

  <!-- 상단 헤더 -->
  <rect x="200" y="0" width="760" height="56" fill="#fff"/>
  <line x1="200" y1="56" x2="960" y2="56" stroke="#e5e7eb"/>
  <text x="220" y="36" font-weight="700" font-size="18" fill="#0f172a">대시보드</text>

  <!-- 검색 -->
  <rect x="520" y="14" width="220" height="28" rx="8" fill="#f1f5f9"/>
  <circle cx="538" cy="28" r="4" fill="none" stroke="#94a3b8" stroke-width="1.5"/>
  <line x1="541" y1="31" x2="544" y2="34" stroke="#94a3b8" stroke-width="1.5"/>
  <text x="552" y="33" font-size="11" fill="#94a3b8">발송 이력 검색</text>

  <!-- 알림/유저 -->
  <circle cx="772" cy="28" r="14" fill="#f1f5f9"/>
  <circle cx="780" cy="22" r="4" fill="#ef4444"/>
  <circle cx="810" cy="28" r="14" fill="#027CFA"/>
  <text x="810" y="32" font-weight="700" font-size="11" fill="#fff" text-anchor="middle">관</text>

  <!-- 새 발송 버튼 -->
  <rect x="838" y="14" width="104" height="28" rx="8" fill="#027CFA"/>
  <text x="852" y="32" font-weight="700" font-size="11" fill="#fff">+ 새 발송</text>

  <!-- KPI 카드 4개 -->
  <g transform="translate(220, 76)">
    <rect width="170" height="100" rx="10" fill="#fff" stroke="#e5e7eb"/>
    <text x="16" y="26" font-size="11" fill="#64748b">오늘 발송량</text>
    <text x="16" y="60" font-weight="800" font-size="22" fill="#0f172a">128,540</text>
    <rect x="16" y="74" width="60" height="18" rx="9" fill="#d1fae5"/>
    <text x="46" y="86" font-weight="700" font-size="10" fill="#065f46" text-anchor="middle">↑ 12.4%</text>
  </g>

  <g transform="translate(400, 76)">
    <rect width="170" height="100" rx="10" fill="#fff" stroke="#e5e7eb"/>
    <text x="16" y="26" font-size="11" fill="#64748b">평균 도달률</text>
    <text x="16" y="60" font-weight="800" font-size="22" fill="#0f172a">99.4%</text>
    <rect x="16" y="74" width="60" height="18" rx="9" fill="#d1fae5"/>
    <text x="46" y="86" font-weight="700" font-size="10" fill="#065f46" text-anchor="middle">↑ 0.3%p</text>
  </g>

  <g transform="translate(580, 76)">
    <rect width="170" height="100" rx="10" fill="#fff" stroke="#e5e7eb"/>
    <text x="16" y="26" font-size="11" fill="#64748b">평균 응답률</text>
    <text x="16" y="60" font-weight="800" font-size="22" fill="#0f172a">23.7%</text>
    <rect x="16" y="74" width="60" height="18" rx="9" fill="#fee2e2"/>
    <text x="46" y="86" font-weight="700" font-size="10" fill="#991b1b" text-anchor="middle">↓ 1.2%p</text>
  </g>

  <g transform="translate(760, 76)">
    <rect width="180" height="100" rx="10" fill="#fff" stroke="#e5e7eb"/>
    <text x="16" y="26" font-size="11" fill="#64748b">남은 크레딧</text>
    <text x="16" y="60" font-weight="800" font-size="22" fill="#0f172a">2,840,000</text>
    <text x="16" y="86" font-size="10" fill="#64748b">충전 권장 알림 (D-3)</text>
  </g>

  <!-- 라인 차트 -->
  <g transform="translate(220, 196)">
    <rect width="470" height="226" rx="10" fill="#fff" stroke="#e5e7eb"/>
    <text x="20" y="30" font-weight="700" font-size="14" fill="#0f172a">일자별 발송량</text>
    <text x="20" y="48" font-size="10" fill="#94a3b8">최근 30일 · 채널 통합</text>

    <rect x="368" y="14" width="82" height="22" rx="6" fill="#f1f5f9"/>
    <text x="409" y="29" font-size="10" fill="#475569" text-anchor="middle">30일 ▾</text>

    <!-- 격자 -->
    <line x1="40" y1="80" x2="450" y2="80" stroke="#f1f5f9"/>
    <line x1="40" y1="120" x2="450" y2="120" stroke="#f1f5f9"/>
    <line x1="40" y1="160" x2="450" y2="160" stroke="#f1f5f9"/>
    <line x1="40" y1="200" x2="450" y2="200" stroke="#f1f5f9"/>

    <text x="34" y="84" font-size="9" fill="#94a3b8" text-anchor="end">200k</text>
    <text x="34" y="124" font-size="9" fill="#94a3b8" text-anchor="end">150k</text>
    <text x="34" y="164" font-size="9" fill="#94a3b8" text-anchor="end">100k</text>
    <text x="34" y="204" font-size="9" fill="#94a3b8" text-anchor="end">50k</text>

    <!-- 영역 -->
    <path d="M 50 170 L 90 155 L 130 165 L 170 130 L 210 110 L 250 135 L 290 100 L 330 80 L 370 105 L 410 85 L 440 70 L 440 200 L 50 200 Z" fill="url(#areaGrad)"/>

    <!-- 라인 -->
    <path d="M 50 170 L 90 155 L 130 165 L 170 130 L 210 110 L 250 135 L 290 100 L 330 80 L 370 105 L 410 85 L 440 70"
          fill="none" stroke="#027CFA" stroke-width="2.5" stroke-linecap="round" stroke-linejoin="round"/>

    <circle cx="440" cy="70" r="9" fill="#027CFA" opacity="0.2"/>
    <circle cx="440" cy="70" r="4" fill="#027CFA"/>

    <text x="50" y="218" font-size="9" fill="#94a3b8">3/16</text>
    <text x="160" y="218" font-size="9" fill="#94a3b8">3/30</text>
    <text x="270" y="218" font-size="9" fill="#94a3b8">4/8</text>
    <text x="380" y="218" font-size="9" fill="#94a3b8">4/16</text>
  </g>

  <!-- 채널 분포 -->
  <g transform="translate(700, 196)">
    <rect width="240" height="226" rx="10" fill="#fff" stroke="#e5e7eb"/>
    <text x="20" y="30" font-weight="700" font-size="14" fill="#0f172a">채널별 분포</text>
    <text x="20" y="48" font-size="10" fill="#94a3b8">상위 5개 채널</text>

    <text x="20" y="74" font-size="10" fill="#475569">SMS</text>
    <text x="220" y="74" font-weight="700" font-size="10" fill="#0f172a" text-anchor="end">75%</text>
    <rect x="20" y="80" width="200" height="6" rx="3" fill="#eff6ff"/>
    <rect x="20" y="80" width="150" height="6" rx="3" fill="#027CFA"/>

    <text x="20" y="106" font-size="10" fill="#475569">알림톡</text>
    <text x="220" y="106" font-weight="700" font-size="10" fill="#0f172a" text-anchor="end">55%</text>
    <rect x="20" y="112" width="200" height="6" rx="3" fill="#fef9c3"/>
    <rect x="20" y="112" width="110" height="6" rx="3" fill="#fbbf24"/>

    <text x="20" y="138" font-size="10" fill="#475569">RCS</text>
    <text x="220" y="138" font-weight="700" font-size="10" fill="#0f172a" text-anchor="end">28%</text>
    <rect x="20" y="144" width="200" height="6" rx="3" fill="#cffafe"/>
    <rect x="20" y="144" width="56" height="6" rx="3" fill="#06b6d4"/>

    <text x="20" y="170" font-size="10" fill="#475569">이메일</text>
    <text x="220" y="170" font-weight="700" font-size="10" fill="#0f172a" text-anchor="end">40%</text>
    <rect x="20" y="176" width="200" height="6" rx="3" fill="#d1fae5"/>
    <rect x="20" y="176" width="80" height="6" rx="3" fill="#10b981"/>

    <text x="20" y="202" font-size="10" fill="#475569">PUSH</text>
    <text x="220" y="202" font-weight="700" font-size="10" fill="#0f172a" text-anchor="end">18%</text>
    <rect x="20" y="208" width="200" height="6" rx="3" fill="#f3e8ff"/>
    <rect x="20" y="208" width="36" height="6" rx="3" fill="#a855f7"/>
  </g>

  <!-- 최근 캠페인 -->
  <g transform="translate(220, 442)">
    <rect width="720" height="80" rx="10" fill="#fff" stroke="#e5e7eb"/>
    <text x="20" y="28" font-weight="700" font-size="13" fill="#0f172a">최근 캠페인</text>
    <text x="700" y="28" font-size="10" fill="#027CFA" text-anchor="end">전체 보기 →</text>

    <circle cx="28" cy="50" r="4" fill="#10b981"/>
    <text x="40" y="54" font-size="11" fill="#0f172a">봄맞이 신상품 안내</text>
    <rect x="200" y="44" width="44" height="14" rx="7" fill="#d1fae5"/>
    <text x="222" y="54" font-weight="600" font-size="9" fill="#065f46" text-anchor="middle">완료</text>
    <text x="700" y="54" font-size="10" fill="#94a3b8" text-anchor="end">2분 전 · 24,560건 발송</text>

    <circle cx="28" cy="70" r="4" fill="#fbbf24"/>
    <text x="40" y="74" font-size="11" fill="#0f172a">신규 회원 웰컴</text>
    <rect x="200" y="64" width="44" height="14" rx="7" fill="#fef3c7"/>
    <text x="222" y="74" font-weight="600" font-size="9" fill="#854d0e" text-anchor="middle">진행</text>
    <text x="700" y="74" font-size="10" fill="#94a3b8" text-anchor="end">14분 전 · 8,210 / 12,450</text>
  </g>
</svg>
